<?xml version="1.0" encoding="UTF-8" standalone="no"?>
<!-- Created with Inkscape (http://www.inkscape.org/) -->

<svg
   width="29.051001mm"
   height="29.051001mm"
   viewBox="0 0 29.051002 29.051"
   version="1.1"
   id="svg1"
   xml:space="preserve"
   inkscape:version="1.4 (e7c3feb1, 2024-10-09)"
   sodipodi:docname="teto-space-program-nasa.svg"
   inkscape:export-filename="teto-space-program-nasa.png"
   inkscape:export-xdpi="1000"
   inkscape:export-ydpi="1000"
   xmlns:inkscape="http://www.inkscape.org/namespaces/inkscape"
   xmlns:sodipodi="http://sodipodi.sourceforge.net/DTD/sodipodi-0.dtd"
   xmlns="http://www.w3.org/2000/svg"
   xmlns:svg="http://www.w3.org/2000/svg"><sodipodi:namedview
     id="namedview1"
     pagecolor="#ffffff"
     bordercolor="#000000"
     borderopacity="0.25"
     inkscape:showpageshadow="2"
     inkscape:pageopacity="0.0"
     inkscape:pagecheckerboard="0"
     inkscape:deskcolor="#d1d1d1"
     inkscape:document-units="mm"
     inkscape:zoom="4.6962036"
     inkscape:cx="39.499991"
     inkscape:cy="50.892171"
     inkscape:window-width="1656"
     inkscape:window-height="805"
     inkscape:window-x="0"
     inkscape:window-y="40"
     inkscape:window-maximized="0"
     inkscape:current-layer="g46" /><defs
     id="defs1"><clipPath
       clipPathUnits="userSpaceOnUse"
       id="clipPath6"><rect
         style="fill:#ffffff;fill-opacity:1;fill-rule:evenodd;stroke:#ff0044;stroke-width:11.3386;stroke-opacity:0"
         id="rect7"
         width="16.393373"
         height="9.0190077"
         x="52.528542"
         y="34.787109" /></clipPath></defs><g
     inkscape:label="Layer 1"
     inkscape:groupmode="layer"
     id="layer1"
     transform="translate(-89.94484,-132.25463)"><g
       id="g1"
       transform="matrix(0.26458333,0,0,0.26458333,88.767973,130.96875)"><circle
         cx="58.866638"
         cy="57.000019"
         fill="#0b3d91"
         r="40.139999"
         id="circle1" /><g
         fill="#ffffff"
         id="g46"
         transform="translate(-0.96188978)"><circle
           cx="57.458527"
           cy="24.570017"
           r="0.44999999"
           id="circle2" /><circle
           cx="62.078529"
           cy="25.170017"
           r="0.44999999"
           id="circle3" /><circle
           cx="68.138527"
           cy="33.330017"
           r="0.44999999"
           id="circle4" /><circle
           cx="34.898529"
           cy="75.330017"
           r="0.44999999"
           id="circle5" /><circle
           cx="36.068527"
           cy="78.930008"
           r="0.44999999"
           id="circle6" /><circle
           cx="30.488533"
           cy="75.870018"
           r="0.33700001"
           id="circle7" /><circle
           cx="48.788528"
           cy="82.942009"
           r="0.338"
           id="circle8" /><circle
           cx="77.490517"
           cy="76.980011"
           r="0.33700001"
           id="circle9" /><circle
           cx="85.831535"
           cy="67.920021"
           r="0.338"
           id="circle10" /><circle
           cx="44.948532"
           cy="35.962017"
           r="0.33700001"
           id="circle11" /><circle
           cx="54.128532"
           cy="29.220016"
           r="0.33700001"
           id="circle12" /><circle
           cx="53.131531"
           cy="28.560017"
           r="0.33700001"
           id="circle13" /><circle
           cx="52.231529"
           cy="27.900017"
           r="0.33700001"
           id="circle14" /><circle
           cx="46.388535"
           cy="37.703014"
           r="0.33700001"
           id="circle15" /><circle
           cx="59.91053"
           cy="20.160017"
           r="0.33700001"
           id="circle16" /><circle
           cx="62.131531"
           cy="29.880016"
           r="0.33700001"
           id="circle17" /><circle
           cx="58.628532"
           cy="27.982018"
           r="0.33700001"
           id="circle18" /><circle
           cx="52.628532"
           cy="30.563017"
           r="0.33700001"
           id="circle19" /><circle
           cx="79.088516"
           cy="85.883011"
           r="0.33700001"
           id="circle20" /><circle
           cx="34.328529"
           cy="77.610008"
           r="0.338"
           id="circle21" /><circle
           cx="57.788528"
           cy="81.960007"
           r="0.338"
           id="circle22" /><circle
           cx="41.310532"
           cy="77.340004"
           r="0.338"
           id="circle23" /><circle
           cx="44.228531"
           cy="82.103004"
           r="0.338"
           id="circle24" /><circle
           cx="65.708527"
           cy="79.103004"
           r="0.33700001"
           id="circle25" /><circle
           cx="77.550529"
           cy="72.420013"
           r="0.33700001"
           id="circle26" /><circle
           cx="86.528526"
           cy="76.522011"
           r="0.33700001"
           id="circle27" /><circle
           cx="89.588524"
           cy="78.480011"
           r="0.33700001"
           id="circle28" /><circle
           cx="90.09153"
           cy="73.140015"
           r="0.33700001"
           id="circle29" /><circle
           cx="45.450531"
           cy="65.580025"
           r="0.33700001"
           id="circle30" /><circle
           cx="45.578529"
           cy="73.320015"
           r="0.44999999"
           id="circle31" /><circle
           cx="48.278534"
           cy="79.020004"
           r="0.44999999"
           id="circle32" /><circle
           cx="80.618523"
           cy="73.080017"
           r="0.44999999"
           id="circle33" /><circle
           cx="92.258522"
           cy="72.420013"
           r="0.44999999"
           id="circle34" /><circle
           cx="86.498528"
           cy="69.960022"
           r="0.44999999"
           id="circle35" /><circle
           cx="80.618523"
           cy="70.20002"
           r="0.44999999"
           id="circle36" /><path
           d="m 68.489529,24.288016 1.119,-0.107 -1.117,-0.063 c -0.035,-0.216 -0.208,-0.385 -0.426,-0.413 l -0.107,-1.114 -0.064,1.123 c -0.202,0.045 -0.357,0.214 -0.382,0.424 l -1.144,0.104 1.152,0.062 c 0.042,0.193 0.198,0.344 0.394,0.38 l 0.104,1.148 0.061,-1.146 c 0.207,-0.035 0.371,-0.194 0.41,-0.398 z"
           id="path36" /><path
           d="m 49.603529,36.746016 1.119,-0.107 -1.117,-0.063 c -0.034,-0.216 -0.208,-0.385 -0.426,-0.413 l -0.107,-1.114 -0.063,1.123 c -0.203,0.045 -0.358,0.214 -0.383,0.424 l -1.144,0.104 1.152,0.062 c 0.042,0.193 0.198,0.344 0.394,0.38 l 0.104,1.148 0.062,-1.146 c 0.207,-0.034 0.371,-0.194 0.409,-0.398 z"
           id="path37" /><path
           d="m 91.438529,69.684016 1.119,-0.107 -1.117,-0.063 c -0.034,-0.216 -0.208,-0.385 -0.426,-0.413 l -0.107,-1.114 -0.063,1.123 c -0.202,0.045 -0.357,0.214 -0.382,0.424 l -1.144,0.104 1.152,0.062 c 0.042,0.193 0.198,0.344 0.394,0.38 l 0.104,1.148 0.062,-1.146 c 0.205,-0.034 0.369,-0.193 0.408,-0.398 z"
           id="path38" /><path
           d="m 45.823529,86.906016 1.119,-0.107 -1.117,-0.063 c -0.035,-0.216 -0.208,-0.385 -0.426,-0.413 l -0.107,-1.113 -0.063,1.122 c -0.203,0.045 -0.358,0.214 -0.383,0.424 l -1.144,0.104 1.152,0.062 c 0.042,0.193 0.198,0.345 0.394,0.38 l 0.104,1.148 0.062,-1.146 c 0.206,-0.034 0.371,-0.194 0.409,-0.398 z"
           id="path39" /><path
           d="m 87.883529,78.506016 1.119,-0.107 -1.117,-0.063 c -0.034,-0.216 -0.208,-0.385 -0.426,-0.413 l -0.107,-1.114 -0.063,1.122 c -0.202,0.045 -0.357,0.214 -0.382,0.424 l -1.144,0.104 1.152,0.062 c 0.042,0.193 0.198,0.344 0.394,0.38 l 0.104,1.148 0.062,-1.146 c 0.205,-0.033 0.37,-0.193 0.408,-0.397 z"
           id="path40" /><path
           d="m 54.663529,66.939016 c -0.885,-1.114 -2.109,-2.606 -3.028,-3.763 -1.229,-1.547 -2.366,-3.11 -3.408,-4.671 -0.34,0.085 -0.679,0.17 -1.018,0.255 1.258,1.963 2.655,3.923 4.177,5.839 1.112,1.4 2.123,2.527 2.641,3.228 0.105,0.142 0.313,0.456 0.594,0.874 0.324,-0.22 0.651,-0.442 0.981,-0.666 -0.319,-0.347 -0.634,-0.712 -0.939,-1.096 z m 6.46,5.864 c -0.727,-0.688 -2.49,-1.837 -4.325,-3.561 -0.405,0.278 -0.814,0.56 -1.224,0.844 1.185,1.67 2.799,3.721 4.063,4.319 1.904,0.902 2.417,-0.72 1.486,-1.602 z m 9.623,-24.99 c -10.492,-13.206 -23.309,-20.461 -28.835,-16.07 -4.292,3.41 -2.53,13.376 3.386,23.845 0.306,-0.105 0.609,-0.208 0.909,-0.31 -5.971,-10.2 -7.605,-19.679 -3.557,-22.896 5.087,-4.042 17.37,3.241 27.558,16.064 2.109,2.654 3.963,5.318 5.533,7.915 6.012,9.95 7.857,18.948 3.703,22.621 -1.271,1.124 -5.155,1.565 -10.243,-0.725 -0.071,0.089 0.043,0.33 0.132,0.389 4.392,1.766 8.599,2.439 10.723,0.752 5.104,-4.056 1.183,-18.379 -9.309,-31.585 z"
           id="path42" /><text
           xml:space="preserve"
           style="font-style:normal;font-variant:normal;font-weight:normal;font-stretch:normal;font-size:21.3333px;line-height:0;font-family:'JetBrainsMono Nerd Font';-inkscape-font-specification:'JetBrainsMono Nerd Font';text-align:start;letter-spacing:-2.83px;word-spacing:-5px;writing-mode:lr-tb;direction:ltr;text-orientation:upright;text-anchor:start;fill:#ffffff;fill-opacity:1;fill-rule:evenodd;stroke:#ffffff;stroke-width:1.51181;stroke-linecap:butt;stroke-linejoin:miter;stroke-dasharray:none;stroke-opacity:1"
           x="63.3857"
           y="65.391068"
           id="text3"><tspan
             sodipodi:role="line"
             id="tspan3"
             x="63.3857"
             y="65.391068">T</tspan><tspan
             sodipodi:role="line"
             x="63.3857"
             y="65.391068"
             id="tspan4" /></text><text
           xml:space="preserve"
           style="font-style:normal;font-variant:normal;font-weight:normal;font-stretch:normal;font-size:21.2996px;line-height:0;font-family:'JetBrainsMono Nerd Font';-inkscape-font-specification:'JetBrainsMono Nerd Font';text-align:start;letter-spacing:-2.82553px;word-spacing:-4.9921px;writing-mode:lr-tb;direction:ltr;text-orientation:upright;text-anchor:start;fill:#ffffff;fill-opacity:1;fill-rule:evenodd;stroke:#ffffff;stroke-width:1.50943;stroke-linecap:butt;stroke-linejoin:miter;stroke-dasharray:none;stroke-opacity:1"
           x="80.449379"
           y="64.737579"
           id="text5"
           transform="scale(0.99290268,1.007148)"><tspan
             sodipodi:role="line"
             id="tspan5"
             x="80.449379"
             y="64.737579"
             style="stroke-width:1.50943">O</tspan><tspan
             sodipodi:role="line"
             x="80.449379"
             y="64.737579"
             id="tspan6"
             style="stroke-width:1.50943" /></text><path
           d="m 69.347529,47.385016 c -4.667,1.814 -9.219,3.433 -13.06,4.635 -7.805,2.444 -29.16,9.06 -42.06,17.4 l 1.08,0.42 c 7.86,-4.44 12.969,-5.835 17.88,-7.38 5.34,-1.68 22.603,-5.72 30.42,-7.92 2.641,-0.743 5.734,-1.716 9.01,-2.9 -0.762,-1.063 -1.566,-2.129 -2.412,-3.193 -0.283,-0.359 -0.57,-0.713 -0.858,-1.062 z m 5.702,7.859 c -1.13,0.763 -2.077,1.372 -2.74,1.756 -3.84,2.22 -22.561,15 -26.82,17.94 -4.259,2.94 -16.08,14.1 -19.56,17.34 l -0.12,1.319 c 11.22,-10.08 14.74,-12.566 19.2,-15.959 5.52,-4.2 16.939,-11.97 20.82,-14.46 3.71,-2.38 7.056,-4.569 10.059,-6.572 -0.049,-0.082 -0.098,-0.164 -0.147,-0.247 -0.226,-0.371 -0.457,-0.743 -0.692,-1.117 z m 17.539,-18.524 c -5.466,3.204 -14.081,7.071 -22.439,10.352 0.2,0.245 0.399,0.492 0.597,0.741 0.934,1.176 1.815,2.36 2.644,3.545 6.57,-2.42 13.779,-5.668 19.499,-9.599 -2.725,2.582 -11.734,9.315 -17.227,13.068 0.283,0.461 0.557,0.922 0.822,1.381 8.322,-5.569 13.922,-9.668 17.185,-12.409 4.500001,-3.78 14.760001,-12.24 18.660001,-23.58 -6.841,8.701 -14.929001,13.68 -19.741001,16.501 z"
           fill="#fc3d21"
           id="path41" /><text
           xml:space="preserve"
           style="font-style:normal;font-variant:normal;font-weight:normal;font-stretch:normal;font-size:21.3333px;line-height:0;font-family:'JetBrainsMono Nerd Font';-inkscape-font-specification:'JetBrainsMono Nerd Font';text-align:start;letter-spacing:-2.83px;word-spacing:-5px;writing-mode:lr-tb;direction:ltr;text-orientation:upright;text-anchor:start;fill:#ffffff;fill-opacity:1;fill-rule:evenodd;stroke:#ffffff;stroke-width:1.51181;stroke-linecap:butt;stroke-linejoin:miter;stroke-dasharray:none;stroke-opacity:1"
           x="27.975773"
           y="65.513603"
           id="text1"><tspan
             sodipodi:role="line"
             id="tspan1"
             x="27.975773"
             y="65.513603">T</tspan></text><text
           xml:space="preserve"
           style="font-style:normal;font-variant:normal;font-weight:normal;font-stretch:normal;font-size:21.3333px;line-height:0;font-family:'JetBrainsMono Nerd Font';-inkscape-font-specification:'JetBrainsMono Nerd Font';text-align:start;letter-spacing:-2.83px;word-spacing:-5px;writing-mode:lr-tb;direction:ltr;text-orientation:upright;text-anchor:start;fill:#ffffff;fill-opacity:1;fill-rule:evenodd;stroke:#ffffff;stroke-width:1.51181;stroke-linecap:butt;stroke-linejoin:miter;stroke-dasharray:none;stroke-opacity:1"
           x="53.51461"
           y="53.392384"
           id="text3-7"
           clip-path="url(#clipPath6)"
           transform="translate(9.8699863,12.000016)"><tspan
             sodipodi:role="line"
             id="tspan3-6"
             x="53.51461"
             y="53.392384">T</tspan><tspan
             sodipodi:role="line"
             x="53.51461"
             y="53.392384"
             id="tspan4-8" /></text><text
           xml:space="preserve"
           style="font-style:normal;font-variant:normal;font-weight:normal;font-stretch:normal;font-size:21.3333px;line-height:0;font-family:'JetBrainsMono Nerd Font';-inkscape-font-specification:'JetBrainsMono Nerd Font';text-align:start;letter-spacing:-2.83px;word-spacing:-5px;writing-mode:lr-tb;direction:ltr;text-orientation:upright;text-anchor:start;fill:#ffffff;fill-opacity:1;fill-rule:evenodd;stroke:#ffffff;stroke-width:1.51181;stroke-linecap:butt;stroke-linejoin:miter;stroke-dasharray:none;stroke-opacity:1"
           x="45.13414"
           y="65.511749"
           id="text2"><tspan
             sodipodi:role="line"
             id="tspan2"
             x="45.13414"
             y="65.511749">E</tspan></text></g></g></g></svg>
