<?xml version="1.0" encoding="UTF-8" standalone="no"?>
<!-- Created with Inkscape (http://www.inkscape.org/) -->

<svg
   width="210mm"
   height="300mm"
   viewBox="0 0 210 300"
   version="1.1"
   id="svg1"
   sodipodi:docname="teto-space-program.svg"
   inkscape:version="1.4 (e7c3feb1, 2024-10-09)"
   inkscape:export-filename="teto-space-program.png"
   inkscape:export-xdpi="200"
   inkscape:export-ydpi="200"
   xmlns:inkscape="http://www.inkscape.org/namespaces/inkscape"
   xmlns:sodipodi="http://sodipodi.sourceforge.net/DTD/sodipodi-0.dtd"
   xmlns:xlink="http://www.w3.org/1999/xlink"
   xmlns="http://www.w3.org/2000/svg"
   xmlns:svg="http://www.w3.org/2000/svg">
  <sodipodi:namedview
     id="namedview1"
     pagecolor="#ffffff"
     bordercolor="#000000"
     borderopacity="0.25"
     inkscape:showpageshadow="2"
     inkscape:pageopacity="0.0"
     inkscape:pagecheckerboard="0"
     inkscape:deskcolor="#d1d1d1"
     inkscape:document-units="mm"
     inkscape:zoom="0.42537932"
     inkscape:cx="534.81678"
     inkscape:cy="547.74642"
     inkscape:window-width="1544"
     inkscape:window-height="825"
     inkscape:window-x="0"
     inkscape:window-y="40"
     inkscape:window-maximized="0"
     inkscape:current-layer="g3"
     inkscape:export-bgcolor="#ffffffff" />
  <defs
     id="defs1">
    <inkscape:path-effect
       effect="taper_stroke"
       start_shape="center | center"
       end_shape="clamp | center"
       id="path-effect2"
       is_visible="true"
       lpeversion="1"
       stroke_width="6"
       subpath="1"
       attach_start="3"
       end_offset="0.3"
       start_smoothing="0.3"
       end_smoothing="0"
       jointype="extrapolated"
       miter_limit="100" />
    <linearGradient
       id="swatch1606"
       inkscape:swatch="solid">
      <stop
         style="stop-color:#000000;stop-opacity:1;"
         offset="0"
         id="stop1606" />
    </linearGradient>
    <pattern
       inkscape:collect="always"
       xlink:href="#pattern6-7"
       preserveAspectRatio="xMidYMid"
       id="pattern1466"
       patternTransform="translate(190,350)" />
    <pattern
       patternUnits="userSpaceOnUse"
       width="29"
       height="20"
       patternTransform="translate(190,350)"
       preserveAspectRatio="xMidYMid"
       style="fill:#000000"
       id="pattern6-7"
       inkscape:label=""
       inkscape:collect="always"
       inkscape:isstock="true">
      <path
         style="fill:none;stroke:#000000;stroke-width:10;stroke-linecap:butt;stroke-dasharray:none;paint-order:stroke markers fill;stop-color:#000000"
         d="M 0,5 C 19,5 10,15 29,15"
         id="path4-2"
         sodipodi:nodetypes="cc" />
    </pattern>
    <linearGradient
       id="linearGradient1415"
       inkscape:collect="always">
      <stop
         style="stop-color:#000000;stop-opacity:1;"
         offset="0"
         id="stop1415" />
      <stop
         style="stop-color:#000000;stop-opacity:0;"
         offset="1"
         id="stop1416" />
    </linearGradient>
    <rect
       x="39.319214"
       y="36.294659"
       width="695.64758"
       height="1028.3486"
       id="rect6" />
    <rect
       x="-205.66972"
       y="-33.270103"
       width="1110.0116"
       height="1300.5586"
       id="rect5" />
    <linearGradient
       inkscape:collect="always"
       xlink:href="#linearGradient1415"
       id="linearGradient1416"
       x1="45.836712"
       y1="51.351509"
       x2="100.17849"
       y2="51.351509"
       gradientUnits="userSpaceOnUse" />
  </defs>
  <g
     inkscape:label="Layer 1"
     inkscape:groupmode="layer"
     id="layer1">
    <text
       xml:space="preserve"
       style="font-style:normal;font-variant:normal;font-weight:normal;font-stretch:normal;font-size:57.8938px;font-family:'Hiragino Mincho Pro';-inkscape-font-specification:'Hiragino Mincho Pro';text-align:start;writing-mode:lr-tb;direction:ltr;text-anchor:start;fill:#666666;fill-opacity:1;stroke:#666666;stroke-width:1.65842;stroke-opacity:1"
       x="53.094967"
       y="133.06505"
       id="text2"
       transform="scale(0.98806428,1.0120799)"><tspan
         sodipodi:role="line"
         id="tspan2"
         style="font-style:normal;font-variant:normal;font-weight:normal;font-stretch:normal;font-family:'Hiragino Mincho Pro';-inkscape-font-specification:'Hiragino Mincho Pro';fill:#666666;fill-opacity:1;stroke:#666666;stroke-width:1.65842;stroke-opacity:1"
         x="53.094967"
         y="133.06505">宙</tspan></text>
    <text
       xml:space="preserve"
       style="font-style:normal;font-variant:normal;font-weight:normal;font-stretch:normal;font-size:57.8938px;font-family:'Hiragino Mincho Pro';-inkscape-font-specification:'Hiragino Mincho Pro';text-align:start;writing-mode:lr-tb;direction:ltr;text-anchor:start;fill:#666666;fill-opacity:1;stroke:#666666;stroke-width:1.65842;stroke-opacity:1"
       x="54.006966"
       y="195.08073"
       id="text3"
       transform="scale(0.98806428,1.0120799)"><tspan
         sodipodi:role="line"
         id="tspan3"
         style="font-style:normal;font-variant:normal;font-weight:normal;font-stretch:normal;font-family:'Hiragino Mincho Pro';-inkscape-font-specification:'Hiragino Mincho Pro';fill:#666666;fill-opacity:1;stroke:#666666;stroke-width:1.65842;stroke-opacity:1"
         x="54.006966"
         y="195.08073">計</tspan></text>
    <text
       xml:space="preserve"
       style="font-style:normal;font-variant:normal;font-weight:normal;font-stretch:normal;font-size:57.8938px;font-family:'Hiragino Mincho Pro';-inkscape-font-specification:'Hiragino Mincho Pro';text-align:start;writing-mode:lr-tb;direction:ltr;text-anchor:start;fill:#666666;fill-opacity:1;stroke:#666666;stroke-width:1.65842;stroke-opacity:1"
       x="53.094971"
       y="257.09644"
       id="text4"
       transform="scale(0.98806428,1.0120799)"><tspan
         sodipodi:role="line"
         id="tspan4"
         style="font-style:normal;font-variant:normal;font-weight:normal;font-stretch:normal;font-family:'Hiragino Mincho Pro';-inkscape-font-specification:'Hiragino Mincho Pro';fill:#666666;fill-opacity:1;stroke:#666666;stroke-width:1.65842;stroke-opacity:1"
         x="53.094971"
         y="257.09644">画</tspan></text>
    <text
       xml:space="preserve"
       transform="scale(0.26458333)"
       id="text5"
       style="font-style:normal;font-variant:normal;font-weight:normal;font-stretch:normal;font-size:192px;font-family:AppleGothic;-inkscape-font-specification:AppleGothic;text-align:start;writing-mode:lr-tb;direction:ltr;white-space:pre;shape-inside:url(#rect5);display:inline;fill:#000000;stroke:#000000;stroke-width:5.5" />
    <text
       xml:space="preserve"
       transform="scale(0.26458333)"
       id="text6"
       style="font-style:normal;font-variant:normal;font-weight:normal;font-stretch:normal;font-size:192px;font-family:AppleGothic;-inkscape-font-specification:AppleGothic;text-align:start;writing-mode:lr-tb;direction:ltr;white-space:pre;shape-inside:url(#rect6);display:inline;fill:#000000;stroke:#000000;stroke-width:5.5" />
    <text
       xml:space="preserve"
       style="font-style:normal;font-variant:normal;font-weight:normal;font-stretch:normal;font-size:57.8938px;font-family:'Hiragino Kaku Gothic Std';-inkscape-font-specification:'Hiragino Kaku Gothic Std';text-align:start;writing-mode:lr-tb;direction:ltr;text-anchor:start;fill:#666666;fill-opacity:1;stroke:#666666;stroke-width:1.65842;stroke-opacity:1"
       x="122.40662"
       y="106.61719"
       id="text7"
       transform="scale(0.98806428,1.0120799)"><tspan
         sodipodi:role="line"
         id="tspan7"
         style="font-style:normal;font-variant:normal;font-weight:normal;font-stretch:normal;font-family:'Hiragino Kaku Gothic Std';-inkscape-font-specification:'Hiragino Kaku Gothic Std';fill:#666666;fill-opacity:1;stroke:#666666;stroke-width:1.65842;stroke-opacity:1"
         x="122.40662"
         y="106.61719">テ</tspan></text>
    <text
       xml:space="preserve"
       style="font-style:normal;font-variant:normal;font-weight:normal;font-stretch:normal;font-size:57.8938px;font-family:'Hiragino Kaku Gothic Std';-inkscape-font-specification:'Hiragino Kaku Gothic Std';text-align:start;writing-mode:lr-tb;direction:ltr;text-anchor:start;fill:#666666;fill-opacity:1;stroke:#666666;stroke-width:1.65842;stroke-opacity:1"
       x="119.67061"
       y="175.01685"
       id="text8"
       inkscape:transform-center-x="2.7033562"
       inkscape:transform-center-y="-4.6150337"
       transform="scale(0.98806428,1.0120799)"><tspan
         sodipodi:role="line"
         id="tspan8"
         style="font-style:normal;font-variant:normal;font-weight:normal;font-stretch:normal;font-family:'Hiragino Kaku Gothic Std';-inkscape-font-specification:'Hiragino Kaku Gothic Std';fill:#666666;fill-opacity:1;stroke:#666666;stroke-width:1.65842;stroke-opacity:1"
         x="119.67061"
         y="175.01685">ト</tspan></text>
  </g>
  <g
     id="g3"
     transform="translate(0,-3.2595292)">
    <path
       d="M 142.06285,250.22134 C 124.07938,233.08346 105.64628,212.55198 86.395777,187.15797 69.535916,164.89901 52.328872,139.39531 39.339772,111.1527 33.41304,98.263644 28.258255,84.73526 24.927005,70.670762 22.393172,59.882391 20.708982,48.749445 22.087701,37.916067 c 0,0 5e-6,-4e-5 5e-6,-4e-5 0.530059,-4.161204 1.511825,-8.24126 3.285809,-11.905668 0,0 1.7e-5,-3.5e-5 1.7e-5,-3.5e-5 1.551313,-3.208111 3.720065,-6.118124 6.462173,-8.26618 2.834787,-2.254152 6.3359,-3.713767 9.986126,-4.464302 0,0 3.9e-5,-8e-6 3.9e-5,-8e-6 4.575191,-0.942945 9.407584,-0.790353 14.182696,-0.123413 12.458299,1.754752 24.319256,6.864325 35.073811,13.384123 12.454753,7.562243 23.536003,17.096095 33.416023,27.327282 11.1032,11.502776 20.70911,23.970625 28.97696,36.708478 8.87915,13.682136 16.14672,27.572686 21.87204,41.437086 5.89119,14.27077 9.99058,28.03256 12.16175,41.51028 0,0 0,3e-5 0,3e-5 2.16645,13.47612 2.29205,25.72558 -0.11532,36.9385 -1.21141,5.64704 -3.0459,10.77674 -5.45374,15.31941 -2.6537,5.00754 -5.95406,9.17187 -9.48395,12.4741 -4.57127,4.27766 -9.56382,7.16074 -13.86425,9.06725 -11.39562,5.05236 -18.59385,5.07094 -18.59385,5.07094 0,0 7.19221,0.0844 18.69705,-4.8339 4.34475,-1.85751 9.40965,-4.69259 14.08512,-8.95333 3.60965,-3.29041 7.0068,-7.46069 9.76122,-12.50141 2.4976,-4.57165 4.42673,-9.74698 5.7246,-15.45024 2.57273,-11.31379 2.61794,-23.72274 0.59029,-37.33986 -1e-5,-1e-5 -1e-5,-2e-5 -1e-5,-3e-5 -2.02409,-13.62308 -5.98541,-27.56594 -11.75172,-42.01499 C 171.49852,117.25795 164.33717,103.15971 155.53893,89.251589 147.3482,76.30147 137.78243,63.586997 126.66077,51.800468 116.77055,41.314523 105.58844,31.485488 92.899115,23.580657 81.941566,16.744487 69.687606,11.337907 56.571508,9.3166245 51.515601,8.5320269 46.24022,8.3368449 41.041109,9.3221429 c 0,0 -4.4e-5,8.3e-6 -4.4e-5,8.3e-6 -4.193864,0.7969328 -8.285573,2.4785618 -11.760557,5.1462368 -3.325619,2.58497 -5.92641,5.96339 -7.744486,9.672745 0,0 -2e-5,4e-5 -2e-5,4e-5 -2.053979,4.194554 -3.212758,8.712084 -3.807398,13.208574 0,0 -6e-6,4.3e-5 -6e-6,4.3e-5 -1.538477,11.622675 0.06384,23.318053 2.608664,34.387403 3.304016,14.492637 8.444522,28.374677 14.371022,41.523867 12.998003,28.84393 30.220442,54.80087 47.116522,77.34111 19.258404,25.71297 37.875134,46.58941 56.098334,63.9623 z"
       style="fill:#ff4e4e;fill-opacity:1;fill-rule:evenodd;stroke:#fdfdfd;stroke-width:2;stroke-dasharray:none;stroke-opacity:1"
       id="path2"
       sodipodi:nodetypes="cssc"
       transform="matrix(0.9599001,0,0,0.79467636,16.645141,45.624442)"
       inkscape:original-d="M 139.99404,252.3939 C 252.45837,237.83379 152.0396,25.374125 56.288037,11.236523 11.169912,4.5748867 10.814465,54.631789 37.024028,112.20688 60.124348,162.95185 105.16522,219.19671 139.99404,252.3939"
       inkscape:path-effect="#path-effect2" />
    <path
       sodipodi:type="star"
       style="fill:#ff4c4c;fill-opacity:1;stroke:#ff4c4c;stroke-width:1.33424;stroke-dasharray:none;stroke-opacity:1"
       id="path3"
       inkscape:flatsided="false"
       sodipodi:sides="3"
       sodipodi:cx="124.37187"
       sodipodi:cy="249.11008"
       sodipodi:r1="10.750954"
       sodipodi:r2="5.3754778"
       sodipodi:arg1="0.77335055"
       sodipodi:arg2="1.8205481"
       inkscape:rounded="0"
       inkscape:randomized="0"
       d="m 132.06498,256.62001 -9.02173,-2.30124 -9.02173,-2.30124 6.5038,-6.66242 6.50379,-6.66243 2.51794,8.96367 z"
       inkscape:transform-center-x="0.65181544"
       inkscape:transform-center-y="-0.58853947"
       transform="matrix(0.49059542,0,0,0.40484992,87.318058,143.56999)" />
    <text
       xml:space="preserve"
       style="font-style:normal;font-variant:normal;font-weight:normal;font-stretch:normal;font-size:8.11389px;line-height:0;font-family:'Hiragino Mincho Pro';-inkscape-font-specification:'Hiragino Mincho Pro';text-align:start;letter-spacing:-0.748771px;word-spacing:-1.32292px;writing-mode:vertical-lr;direction:ltr;text-anchor:start;fill:#666666;fill-opacity:1;fill-rule:evenodd;stroke:#666666;stroke-width:1;stroke-linecap:butt;stroke-linejoin:miter;stroke-dasharray:none;stroke-dashoffset:0;stroke-opacity:1"
       x="45.16964"
       y="136.02118"
       id="text9-3"><tspan
         style="font-style:normal;font-variant:normal;font-weight:normal;font-stretch:normal;font-size:8.11389px;line-height:0;font-family:'Hiragino Mincho Pro';-inkscape-font-specification:'Hiragino Mincho Pro';letter-spacing:-0.748771px;word-spacing:-1.32292px;writing-mode:vertical-lr;text-orientation:upright;fill:#666666;fill-opacity:1;stroke:#666666;stroke-width:1;stroke-linecap:butt;stroke-linejoin:miter;stroke-dasharray:none;stroke-dashoffset:0;stroke-opacity:1"
         id="tspan85-4"
         x="45.16964"
         y="136.02118"
         sodipodi:role="line"
         dx="0"
         dy="0">Teto Space Program</tspan><tspan
         style="font-style:normal;font-variant:normal;font-weight:normal;font-stretch:normal;font-size:8.11389px;line-height:0;font-family:'Hiragino Mincho Pro';-inkscape-font-specification:'Hiragino Mincho Pro';letter-spacing:-0.748771px;word-spacing:-1.32292px;writing-mode:vertical-lr;fill:#666666;fill-opacity:1;stroke:#666666;stroke-width:1;stroke-linecap:butt;stroke-linejoin:miter;stroke-dasharray:none;stroke-dashoffset:0;stroke-opacity:1"
         x="45.16964"
         y="136.02118"
         id="tspan10-4"
         sodipodi:role="line" /></text>
  </g>
  <text
     xml:space="preserve"
     style="font-style:normal;font-variant:normal;font-weight:normal;font-stretch:normal;font-size:57.8938px;font-family:'Hiragino Mincho Pro';-inkscape-font-specification:'Hiragino Mincho Pro';text-align:start;writing-mode:lr-tb;direction:ltr;text-anchor:start;fill:#666666;fill-opacity:1;stroke:#666666;stroke-width:1.658;stroke-linecap:butt;stroke-linejoin:miter;stroke-miterlimit:4.3;stroke-dasharray:none;stroke-opacity:1"
     x="52.182976"
     y="73.785355"
     id="text1"
     transform="scale(0.98806428,1.0120799)"><tspan
       sodipodi:role="line"
       id="tspan1"
       style="font-style:normal;font-variant:normal;font-weight:normal;font-stretch:normal;font-family:'Hiragino Mincho Pro';-inkscape-font-specification:'Hiragino Mincho Pro';fill:#666666;fill-opacity:1;stroke:#666666;stroke-width:1.658;stroke-linecap:butt;stroke-linejoin:miter;stroke-miterlimit:4.3;stroke-dasharray:none;stroke-opacity:1"
       x="52.182976"
       y="73.785355">宇</tspan></text>
</svg>
